<?xml version="1.0" encoding="UTF-8"?>
<svg version="1.1" xmlns="http://www.w3.org/2000/svg" width="500" height="500">
<path d="M0 0 C2.03401311 -0.00271721 4.06802523 -0.00628221 6.10203552 -0.01062012 C11.57516121 -0.01965959 17.04821066 -0.01623506 22.52133751 -0.00986195 C28.28021813 -0.00475786 34.03909272 -0.00950555 39.79797363 -0.01263428 C49.46444863 -0.01626117 59.13089295 -0.01150847 68.79736328 -0.00195312 C79.93377469 0.00892893 91.07011283 0.00540245 102.20652246 -0.00560594 C111.81045481 -0.01471533 121.41436525 -0.0159463 131.01830053 -0.0107286 C136.73572838 -0.00762891 142.45312192 -0.00714399 148.17054749 -0.01380157 C153.54858348 -0.01962782 158.92652606 -0.01548272 164.30455208 -0.00401306 C166.26474414 -0.00139447 168.22494423 -0.00208287 170.18513298 -0.00653839 C185.07658919 -0.03723625 200.15241092 0.24668871 214.52929688 4.57128906 C215.27622803 4.78785156 216.02315918 5.00441406 216.79272461 5.22753906 C222.84877043 7.04153482 228.54565791 9.32973049 234.15429688 12.25878906 C235.28158203 12.82533203 235.28158203 12.82533203 236.43164062 13.40332031 C262.55670535 27.13160564 281.07200061 50.4600969 290.12695312 78.24316406 C290.89160564 80.90215674 291.53496036 83.5624729 292.15429688 86.25878906 C292.33558451 87.04324874 292.51687214 87.82770842 292.70365334 88.6359396 C294.75265006 99.03701261 294.45058389 109.51245914 294.44482422 120.06567383 C294.45081684 122.26319098 294.45762407 124.46070605 294.46517944 126.65821838 C294.48277411 132.60075412 294.48753213 138.54323217 294.48881102 144.48579144 C294.49023714 148.20740618 294.4945155 151.92900647 294.49980545 155.6506176 C294.51733396 167.98975983 294.52664838 180.32887151 294.5251445 192.66802574 C294.52506459 193.33131016 294.52498468 193.99459457 294.52490234 194.67797852 C294.52482058 195.34208754 294.52473882 196.00619656 294.52465458 196.6904301 C294.52384282 207.43719186 294.54295909 218.18381309 294.57117908 228.93053425 C294.60002984 240.00626866 294.61334789 251.08193145 294.61199152 262.15770382 C294.61148417 268.35934086 294.61704127 274.56081878 294.63834763 280.76242256 C294.65786582 286.6025599 294.65776242 292.44238855 294.64331436 298.28253746 C294.64124176 300.41120994 294.64583326 302.53990244 294.65803528 304.66854095 C294.78387031 328.16517324 290.08883856 347.40425079 279.15429688 368.25878906 C278.49429687 368.25878906 277.83429688 368.25878906 277.15429688 368.25878906 C276.96867187 369.06316406 276.78304688 369.86753906 276.59179688 370.69628906 C274.64485696 375.52131408 271.72081579 379.47356852 268.15429688 383.25878906 C267.49429687 383.25878906 266.83429688 383.25878906 266.15429688 383.25878906 C266.15429688 383.91878906 266.15429688 384.57878906 266.15429688 385.25878906 C265.49429687 385.25878906 264.83429688 385.25878906 264.15429688 385.25878906 C263.79851562 386.11537109 263.79851562 386.11537109 263.43554688 386.98925781 C254.95094607 402.01838302 231.15791909 412.63502163 215.15429688 417.25878906 C204.74910692 419.83398658 194.68219833 421.41275002 183.97911072 421.39250183 C182.6432859 421.39590017 182.6432859 421.39590017 181.28047472 421.39936715 C178.31384148 421.40566748 175.3472544 421.40488034 172.38061523 421.40405273 C170.24616436 421.40704678 168.11171403 421.41044987 165.9772644 421.41423035 C160.18972257 421.42305143 154.40219553 421.42540772 148.61464763 421.42604613 C144.99359595 421.42675792 141.37254801 421.42889472 137.75149727 421.43154335 C125.1036162 421.44079181 112.45574566 421.44487902 99.80786133 421.4440918 C88.0439226 421.44349173 76.28002984 421.45403085 64.51610273 421.46983546 C54.39689257 421.4829428 44.27769737 421.48827433 34.1584788 421.48763639 C28.12351367 421.48738226 22.08858936 421.49018602 16.05363274 421.50081444 C10.37122339 421.51054879 4.68889344 421.51053822 -0.99351883 421.50329781 C-3.06903767 421.50225844 -5.1445616 421.50457592 -7.22007179 421.51065826 C-21.48621904 421.54972846 -35.53109335 421.38959354 -49.22070312 416.88378906 C-49.88932373 416.66392334 -50.55794434 416.44405762 -51.24682617 416.2175293 C-56.2764021 414.53122477 -61.11509098 412.65458711 -65.84570312 410.25878906 C-66.67972656 409.85273438 -67.51375 409.44667969 -68.37304688 409.02832031 C-76.25311429 404.99218822 -82.99547538 399.80756147 -89.84570312 394.25878906 C-90.37421875 393.83251221 -90.90273437 393.40623535 -91.44726562 392.96704102 C-94.2649363 390.66457408 -96.86429883 388.34536291 -99.22070312 385.57128906 C-99.97480469 384.69923828 -99.97480469 384.69923828 -100.74414062 383.80957031 C-101.84570312 382.25878906 -101.84570312 382.25878906 -101.84570312 380.25878906 C-102.50570312 380.25878906 -103.16570312 380.25878906 -103.84570312 380.25878906 C-119.84499832 359.82846229 -128.01407939 335.80944349 -127.98614502 309.94593811 C-127.98911614 309.06466875 -127.99208726 308.18339939 -127.99514842 307.2754249 C-128.00375026 304.35198233 -128.00533639 301.42858112 -128.00683594 298.50512695 C-128.01147023 296.39657506 -128.01649571 294.28802399 -128.0218811 292.17947388 C-128.03495003 286.47029501 -128.04143951 280.76112787 -128.04589176 275.05193639 C-128.04883199 271.47674037 -128.0529386 267.9015475 -128.05739594 264.32635307 C-128.07105767 253.11636244 -128.08073025 241.90637906 -128.08459783 230.69638067 C-128.08907251 217.80119923 -128.10659864 204.90612409 -128.13559842 192.01097494 C-128.15729206 182.01395393 -128.16730623 172.01696266 -128.16863894 162.01991838 C-128.16968167 156.06307814 -128.17547505 150.10633802 -128.19345856 144.14952278 C-128.21007215 138.53763402 -128.21203099 132.9259192 -128.20331955 127.31401443 C-128.20255618 125.2691965 -128.2067979 123.22436869 -128.2167778 121.17957497 C-128.33888407 94.57286407 -123.81379724 68.33233092 -107.84570312 46.25878906 C-107.18570313 46.25878906 -106.52570313 46.25878906 -105.84570312 46.25878906 C-105.58595703 45.51153564 -105.32621094 44.76428223 -105.05859375 43.99438477 C-103.81446772 41.18833964 -102.59883938 39.63800812 -100.43945312 37.48925781 C-99.77816406 36.82861328 -99.116875 36.16796875 -98.43554688 35.48730469 C-97.74589844 34.81376953 -97.05625 34.14023438 -96.34570312 33.44628906 C-95.65605469 32.75341797 -94.96640625 32.06054688 -94.25585938 31.34667969 C-89.11282905 26.25878906 -89.11282905 26.25878906 -86.84570312 26.25878906 C-86.84570312 25.59878906 -86.84570312 24.93878906 -86.84570312 24.25878906 C-74.98267854 15.05442814 -61.93982133 8.39496764 -47.47070312 4.44628906 C-46.76526367 4.25123779 -46.05982422 4.05618652 -45.33300781 3.85522461 C-30.46897746 0.11280382 -15.22508183 -0.0346067 0 0 Z M37.15429688 114.25878906 C35.79304688 114.86787109 35.79304688 114.86787109 34.40429688 115.48925781 C10.77708692 126.47221869 -8.52959229 148.10278497 -18.10351562 172.22265625 C-22.96257564 185.5531038 -25.02542642 198.26935969 -25.03320312 212.44628906 C-25.04544922 213.60193359 -25.05769531 214.75757813 -25.0703125 215.94824219 C-25.11778041 244.12836011 -13.17107357 269.11541352 6.15429688 289.25878906 C7.14236328 290.32419922 7.14236328 290.32419922 8.15039062 291.41113281 C12.9961617 296.4909049 18.31267252 300.39372772 24.15429688 304.25878906 C24.76917969 304.69578125 25.3840625 305.13277344 26.01757812 305.58300781 C28.66093708 307.45238077 29.82978684 308.25878906 33.15429688 308.25878906 C33.15429688 308.91878906 33.15429688 309.57878906 33.15429688 310.25878906 C34.74757813 310.85626953 34.74757813 310.85626953 36.37304688 311.46582031 C39.20638021 312.52832031 42.03971354 313.59082031 44.87304688 314.65332031 C45.58460938 314.91838379 46.29617187 315.18344727 47.02929688 315.45654297 C48.40912221 315.97746508 49.7845113 316.51035171 51.15429688 317.05712891 C59.45793375 320.32956913 67.50973118 321.59679246 76.40429688 321.94628906 C77.32815186 321.98391357 78.25200684 322.02153809 79.20385742 322.06030273 C96.71559969 322.66859407 112.24743517 319.53508799 128.15429688 312.25878906 C129.90408853 311.4874829 131.65406982 310.71660672 133.40429688 309.94628906 C134.65495987 309.38526471 135.90524292 308.82338668 137.15429688 308.25878906 C137.15429688 307.59878906 137.15429688 306.93878906 137.15429688 306.25878906 C137.70214844 306.17242187 138.25 306.08605469 138.81445312 305.99707031 C141.89883063 305.0238694 144.00493162 303.38015921 146.59179688 301.44628906 C147.51863281 300.75921875 148.44546875 300.07214844 149.40039062 299.36425781 C150.30917969 298.66945313 151.21796875 297.97464844 152.15429688 297.25878906 C153.09402344 296.55367187 154.03375 295.84855469 155.00195312 295.12207031 C155.71222656 294.5071875 156.4225 293.89230469 157.15429688 293.25878906 C157.15429688 292.59878906 157.15429688 291.93878906 157.15429688 291.25878906 C157.81429687 291.25878906 158.47429687 291.25878906 159.15429688 291.25878906 C159.15429688 290.59878906 159.15429688 289.93878906 159.15429688 289.25878906 C159.70988281 289.06027344 160.26546875 288.86175781 160.83789062 288.65722656 C164.08407614 286.69747207 166.00789633 283.8908081 168.21679688 280.88378906 C168.65056641 280.30628906 169.08433594 279.72878906 169.53125 279.13378906 C170.74602724 277.51408607 171.95048013 275.88665477 173.15429688 274.25878906 C174.04955078 273.15664063 174.04955078 273.15664063 174.96289062 272.03222656 C176.43312198 270.19983036 176.43312198 270.19983036 176.15429688 267.25878906 C176.81429687 267.25878906 177.47429687 267.25878906 178.15429688 267.25878906 C183.63826392 256.54371801 187.25168544 245.92920611 190.15429688 234.25878906 C190.33154297 233.61232422 190.50878906 232.96585938 190.69140625 232.29980469 C194.66502108 214.77901357 192.82447248 193.79461974 186.15429688 177.25878906 C185.86683594 176.49953125 185.579375 175.74027344 185.28320312 174.95800781 C180.53242556 162.59810102 174.51104732 152.4316522 166.15429688 142.25878906 C165.55230469 141.47890625 164.9503125 140.69902344 164.33007812 139.89550781 C148.10441885 119.95070866 121.49103955 106.86974995 96.23461914 104.03808594 C75.27402168 102.13756097 56.12624476 104.94220751 37.15429688 114.25878906 Z " fill="#2FF48E" transform="translate(166.845703125,36.7412109375)"/>
<path d="M0 0 C14.62928375 13.57015009 26.62151215 31.78457735 27.75097656 52.33398438 C27.79685301 55.85686873 27.82513328 59.37918551 27.83984375 62.90234375 C27.86046875 64.10632813 27.88109375 65.3103125 27.90234375 66.55078125 C27.98588298 85.97365181 20.977864 105.96586408 7.58984375 120.40234375 C6.92984375 120.40234375 6.26984375 120.40234375 5.58984375 120.40234375 C5.33847656 120.985 5.08710938 121.56765625 4.828125 122.16796875 C-2.02324323 134.53068997 -20.11077364 142.24022685 -32.98022461 146.19140625 C-40.68740175 148.33663092 -47.87276966 148.85932431 -55.84765625 148.77734375 C-56.97236328 148.78894531 -58.09707031 148.80054688 -59.25585938 148.8125 C-78.76835462 148.74525418 -97.61618379 141.18585329 -112.41015625 128.40234375 C-112.41015625 127.74234375 -112.41015625 127.08234375 -112.41015625 126.40234375 C-113.73015625 125.74234375 -115.05015625 125.08234375 -116.41015625 124.40234375 C-116.41015625 123.74234375 -116.41015625 123.08234375 -116.41015625 122.40234375 C-117.07015625 122.40234375 -117.73015625 122.40234375 -118.41015625 122.40234375 C-118.41015625 121.74234375 -118.41015625 121.08234375 -118.41015625 120.40234375 C-119.07015625 120.40234375 -119.73015625 120.40234375 -120.41015625 120.40234375 C-122.14434239 118.03754446 -123.76114757 115.67587814 -125.34765625 113.21484375 C-125.79044922 112.54130859 -126.23324219 111.86777344 -126.68945312 111.17382812 C-127.55660082 109.84919863 -128.4167604 108.51996556 -129.26953125 107.18603516 C-130.17363596 105.77221045 -131.0988054 104.37185912 -132.03125 102.9765625 C-134.01567731 99.27192342 -135.24586054 95.39332946 -136.53515625 91.40234375 C-136.79941406 90.60828125 -137.06367188 89.81421875 -137.3359375 88.99609375 C-140.08184695 80.63291775 -140.62194053 73.20151411 -140.66015625 64.40234375 C-140.68078125 63.24605469 -140.70140625 62.08976562 -140.72265625 60.8984375 C-140.77854712 48.39285462 -138.17439221 37.47930894 -132.41015625 26.40234375 C-131.84425781 25.28859375 -131.27835938 24.17484375 -130.6953125 23.02734375 C-124.58950072 11.44371915 -116.44325311 1.6330739 -105.41015625 -5.59765625 C-104.59160156 -6.17 -103.77304688 -6.74234375 -102.9296875 -7.33203125 C-96.12021929 -11.93063316 -89.17364701 -14.95806939 -81.41015625 -17.59765625 C-80.21390625 -18.01015625 -79.01765625 -18.42265625 -77.78515625 -18.84765625 C-49.86974171 -25.0510817 -21.59625944 -18.55185282 0 0 Z " fill="#2FF58E" transform="translate(306.41015625,185.59765625)"/>
<path d="M0 0 C0.93558007 -0.00311998 1.87116014 -0.00623996 2.83509111 -0.00945449 C5.98350781 -0.01745909 9.13173309 -0.01110124 12.28015137 -0.00482178 C14.53185642 -0.00753054 16.78356058 -0.01109083 19.03526306 -0.01544189 C25.16114653 -0.02458175 31.28696284 -0.02101506 37.41284752 -0.01468372 C43.81364502 -0.00963199 50.21443665 -0.01431287 56.61523438 -0.01745605 C68.05495645 -0.02133162 79.49464122 -0.01510322 90.93435699 -0.00493738 C101.31119295 0.00399838 111.68798418 0.00244642 122.06481934 -0.0067749 C134.10885434 -0.01747273 146.15285554 -0.02146474 158.19689703 -0.01555037 C164.57472146 -0.01242691 170.95251505 -0.01203163 177.33033752 -0.01862335 C183.3253646 -0.02438626 189.3203069 -0.02041928 195.31532478 -0.00883484 C197.52004416 -0.00618259 199.72477064 -0.0069629 201.92948723 -0.01136017 C204.9302211 -0.01679481 207.93068029 -0.01000682 210.93139648 0 C211.81163876 -0.00446144 212.69188104 -0.00892289 213.59879732 -0.01351953 C219.62324767 0.0256669 219.62324767 0.0256669 222.96569824 2.25396729 C217.17867982 3.08571602 211.58511262 3.39677784 205.7434082 3.38095093 C204.40017494 3.38329091 204.40017494 3.38329091 203.02980566 3.38567817 C200.04683095 3.38964803 197.06390766 3.38651414 194.08093262 3.38336182 C191.93512441 3.38471764 189.78931644 3.38649859 187.64350891 3.38867188 C181.82750946 3.39322467 176.01152778 3.39146549 170.19552803 3.38829279 C164.10406573 3.38575808 158.01260494 3.38810983 151.92114258 3.38967896 C141.69233935 3.3914974 131.46354334 3.38910285 121.23474121 3.38433838 C109.41500885 3.37889639 97.59529375 3.38065927 85.77556181 3.38616478 C75.62079327 3.39070516 65.46602992 3.39134193 55.3112607 3.38872612 C49.24914549 3.38716844 43.18703839 3.38695565 37.12492371 3.3902626 C31.42531719 3.39315472 25.72573289 3.39114094 20.02612877 3.38536835 C17.9363833 3.38404795 15.84663597 3.38442263 13.75689125 3.38663101 C10.90056517 3.38937082 8.04430988 3.3859268 5.18798828 3.38095093 C3.9529513 3.38429701 3.9529513 3.38429701 2.69296408 3.38771069 C-2.30054235 3.37088358 -7.09020685 2.96456545 -12.03430176 2.25396729 C-8.05754694 -0.3972026 -4.61609886 -0.02339636 0 0 Z " fill="#2D995D" transform="translate(145.0343017578125,454.74603271484375)"/>
<path d="M0 0 C0.33 0 0.66 0 1 0 C1.02335028 28.32004403 1.04098967 56.64008661 1.05181217 84.96013832 C1.05697059 98.10933377 1.06400468 111.25852323 1.07543945 124.40771484 C1.08540012 135.8672382 1.09185674 147.32675724 1.09408849 158.7862848 C1.09539324 164.85516481 1.09846426 170.92403244 1.10573006 176.99290848 C1.11251205 182.70389002 1.1146125 188.41485405 1.11310768 194.12583923 C1.11338303 196.22286957 1.11537523 198.31990048 1.11920547 200.41692734 C1.1241767 203.2787564 1.12298556 206.14051928 1.12025452 209.00234985 C1.12462378 210.24847437 1.12462378 210.24847437 1.12908131 211.51977313 C1.11804989 215.79331431 0.85046107 219.79047567 0 224 C-2 222 -2 222 -2.125 218.875 C-2.08375 217.92625 -2.0425 216.9775 -2 216 C-1.34 216 -0.68 216 0 216 C0 144.72 0 73.44 0 0 Z " fill="#47E896" transform="translate(459,142)"/>
<path d="M0 0 C3.59189916 3.59189916 3.12796393 7.54756179 3.1328125 12.4453125 C3.13474609 14.30736328 3.13474609 14.30736328 3.13671875 16.20703125 C3.13285156 17.49996094 3.12898438 18.79289062 3.125 20.125 C3.13080078 22.07599609 3.13080078 22.07599609 3.13671875 24.06640625 C3.13542969 25.30519531 3.13414062 26.54398437 3.1328125 27.8203125 C3.13168457 28.95742676 3.13055664 30.09454102 3.12939453 31.26611328 C3 34 3 34 2 36 C1.34 36 0.68 36 0 36 C0.020625 37.175625 0.04125 38.35125 0.0625 39.5625 C0.06947261 43.47413467 -0.35749657 47.14497944 -1 51 C-2.485 51.495 -2.485 51.495 -4 52 C-4.33 54.64 -4.66 57.28 -5 60 C-5.66 60 -6.32 60 -7 60 C-7 60.66 -7 61.32 -7 62 C-6.34 62.33 -5.68 62.66 -5 63 C-5.66 64.32 -6.32 65.64 -7 67 C-7.66 67 -8.32 67 -9 67 C-9 67.99 -9 68.98 -9 70 C-9.66 70 -10.32 70 -11 70 C-11.33 71.65 -11.66 73.3 -12 75 C-12.99 75 -13.98 75 -15 75 C-15 74.01 -15 73.02 -15 72 C-14.34 72 -13.68 72 -13 72 C-12.88140625 71.43539062 -12.7628125 70.87078125 -12.640625 70.2890625 C-11.93993308 67.78537066 -10.91554799 65.69871909 -9.75 63.375 C-6.12383924 55.58507905 -4.11840864 47.29849879 -2 39 C-1.82057861 38.35135986 -1.64115723 37.70271973 -1.45629883 37.03442383 C-0.96211019 34.83106699 -0.79098969 32.76289121 -0.68359375 30.5078125 C-0.64161865 29.64373779 -0.59964355 28.77966309 -0.55639648 27.8894043 C-0.51716064 26.97715088 -0.4779248 26.06489746 -0.4375 25.125 C-0.3950415 24.19276611 -0.35258301 23.26053223 -0.30883789 22.30004883 C0.00950644 14.86155251 0.11262004 7.44543591 0 0 Z " fill="#268952" transform="translate(358,232)"/>
<path d="M0 0 C2 3 2 3 1.625 5.6875 C1.41875 6.450625 1.2125 7.21375 1 8 C0.67 8 0.34 8 0 8 C-0.33 21.86 -0.66 35.72 -1 50 C-4.59901417 42.80197166 -4.21563681 35.91212459 -4.25 28 C-4.270625 26.84371094 -4.29125 25.68742187 -4.3125 24.49609375 C-4.34895582 16.339105 -3.37988341 8.82273602 -1 1 C-0.67 0.67 -0.34 0.34 0 0 Z " fill="#2B9F5F" transform="translate(170,222)"/>
<path d="M0 0 C-2.25 2.0625 -2.25 2.0625 -5 4 C-7.3125 3.75 -7.3125 3.75 -9 3 C-9.33 3.99 -9.66 4.98 -10 6 C-23.86747059 12.49286195 -44.27044576 9.78038182 -59 8 C-59 7.67 -59 7.34 -59 7 C-57.06060547 7.01740234 -57.06060547 7.01740234 -55.08203125 7.03515625 C-30.05382377 7.2628042 -30.05382377 7.2628042 -6.2109375 0.3046875 C-3 -1 -3 -1 0 0 Z " fill="#1F8048" transform="translate(293,351)"/>
<path d="M0 0 C2.57001323 3.85501985 3.34556382 7.84975318 4.41210938 12.28710938 C5.47563967 16.52004469 6.92214368 20.16700619 9 24 C9.33 24.66 9.66 25.32 10 26 C10.66 26 11.32 26 12 26 C12 27.98 12 29.96 12 32 C12.99 32.33 13.98 32.66 15 33 C15.061875 33.78375 15.12375 34.5675 15.1875 35.375 C15.455625 36.24125 15.72375 37.1075 16 38 C18.47636012 39.37466625 18.47636012 39.37466625 21 40 C20.67 41.98 20.34 43.96 20 46 C15.47355547 41.95853167 12.78910316 37.6104938 10 32.25 C9.34862061 31.00549072 9.34862061 31.00549072 8.68408203 29.73583984 C4.19299093 20.85982602 -0.58799772 10.15276064 0 0 Z " fill="#1A7442" transform="translate(41,366)"/>
<path d="M0 0 C3.59189916 3.59189916 3.12796393 7.54756179 3.1328125 12.4453125 C3.13410156 13.68667969 3.13539063 14.92804688 3.13671875 16.20703125 C3.13285156 17.49996094 3.12898438 18.79289062 3.125 20.125 C3.12886719 21.42566406 3.13273437 22.72632813 3.13671875 24.06640625 C3.13542969 25.30519531 3.13414062 26.54398437 3.1328125 27.8203125 C3.13168457 28.95742676 3.13055664 30.09454102 3.12939453 31.26611328 C3 34 3 34 2 36 C1.34 36 0.68 36 0 36 C0 24.12 0 12.24 0 0 Z " fill="#30A061" transform="translate(358,232)"/>
<path d="M0 0 C0 0.66 0 1.32 0 2 C0.598125 2.12375 1.19625 2.2475 1.8125 2.375 C4 3 4 3 7 5 C6.07703125 4.85820312 5.1540625 4.71640625 4.203125 4.5703125 C-11.57585582 2.33086838 -27.12646572 1.61480951 -43 3 C-42.67 2.34 -42.34 1.68 -42 1 C-28.50682316 -1.5678218 -13.66260759 -0.09233411 0 0 Z " fill="#1D7643" transform="translate(272,139)"/>
<path d="M0 0 C0.33 0 0.66 0 1 0 C0.29979979 11.90340355 -5.55219967 22.60986535 -11 33 C-11.66 32.67 -12.32 32.34 -13 32 C-12.690625 31.46375 -12.38125 30.9275 -12.0625 30.375 C-10.82172561 27.6015043 -10.4090325 24.99957163 -10 22 C-9.34 22 -8.68 22 -8 22 C-8 20.35 -8 18.7 -8 17 C-7.34 17 -6.68 17 -6 17 C-6.0309375 15.9171875 -6.0309375 15.9171875 -6.0625 14.8125 C-6.00179441 12.08074862 -5.60741465 9.65743909 -5 7 C-3.68 7 -2.36 7 -1 7 C-0.67 4.69 -0.34 2.38 0 0 Z " fill="#218A52" transform="translate(457,372)"/>
<path d="M0 0 C0.99 0.33 1.98 0.66 3 1 C4.66362417 1.34820041 6.32995171 1.68404492 8 2 C4.8944011 4.07039926 2.44462148 4.8539026 -1.125 5.875 C-5.99954232 7.32433496 -10.52500347 9.02520881 -15.12109375 11.18359375 C-17.37242492 12.16182289 -19.56808908 12.68620504 -22 13 C-21.34 12.34 -20.68 11.68 -20 11 C-19.74476563 10.31421875 -19.48953125 9.6284375 -19.2265625 8.921875 C-18 7 -18 7 -15.3984375 6.390625 C-14.40070313 6.34421875 -13.40296875 6.2978125 -12.375 6.25 C-11.37210938 6.19328125 -10.36921875 6.1365625 -9.3359375 6.078125 C-8.56507813 6.05234375 -7.79421875 6.0265625 -7 6 C-7 5.34 -7 4.68 -7 4 C-6.030625 3.525625 -5.06125 3.05125 -4.0625 2.5625 C-1.19522563 1.29806053 -1.19522563 1.29806053 0 0 Z " fill="#207A49" transform="translate(221,140)"/>
<path d="M0 0 C0.99 0.33 1.98 0.66 3 1 C3 1.66 3 2.32 3 3 C5.31 3.33 7.62 3.66 10 4 C10 4.66 10 5.32 10 6 C11.65 6 13.3 6 15 6 C15.33 7.32 15.66 8.64 16 10 C16.721875 9.835 17.44375 9.67 18.1875 9.5 C21 10 21 10 22.4453125 11.78125 C23.70314992 13.82254045 24.88633253 15.8769233 26 18 C22.91925397 16.5711472 20.3437096 14.83993361 17.625 12.8125 C11.46352051 8.42198468 4.81466231 5.23058199 -2 2 C-1.34 1.34 -0.68 0.68 0 0 Z " fill="#1E7F49" transform="translate(293,147)"/>
<path d="M0 0 C0 4.04016345 -2.01785289 6.17826108 -4.3125 9.3125 C-7.28829104 13.40836549 -9.84406429 17.38811164 -12 22 C-12.33 22 -12.66 22 -13 22 C-13 20.35 -13 18.7 -13 17 C-12.34 17 -11.68 17 -11 17 C-10.87625 15.741875 -10.7525 14.48375 -10.625 13.1875 C-10.30131941 9.89674737 -9.93395001 8.90092502 -8 6 C-5.875 5.3125 -5.875 5.3125 -4 5 C-4.33 3.68 -4.66 2.36 -5 1 C-3.35 0.67 -1.7 0.34 0 0 Z " fill="#1D9656" transform="translate(165,180)"/>
<path d="M0 0 C1.98 0 3.96 0 6 0 C1.02015502 5.84961243 -8.66775223 8.35398519 -16 10 C-18.9375 10.125 -18.9375 10.125 -21 10 C-20.01 9.67 -19.02 9.34 -18 9 C-18 8.34 -18 7.68 -18 7 C-15.56427941 6.16112944 -13.12666783 5.32873471 -10.6875 4.5 C-9.65206055 4.14228516 -9.65206055 4.14228516 -8.59570312 3.77734375 C-5.61068511 2.76791737 -3.17341086 2 0 2 C0 1.34 0 0.68 0 0 Z " fill="#268D54" transform="translate(285,323)"/>
<path d="M0 0 C4.84601214 4.40546558 8.40475034 9.54748867 12 15 C12.58523438 15.86625 13.17046875 16.7325 13.7734375 17.625 C14.17820312 18.40875 14.58296875 19.1925 15 20 C14.67 20.99 14.34 21.98 14 23 C14 22.34 14 21.68 14 21 C13.236875 20.814375 12.47375 20.62875 11.6875 20.4375 C7.88792076 18.40516692 7.33162699 15.99488097 6 12 C6 11.01 6 10.02 6 9 C4.68 8.67 3.36 8.34 2 8 C1.34 5.36 0.68 2.72 0 0 Z " fill="#20844D" transform="translate(435,77)"/>
<path d="M0 0 C0 0.33 0 0.66 0 1 C-1.28777344 1.13277344 -2.57554687 1.26554688 -3.90234375 1.40234375 C-5.58075362 1.58049899 -7.25913773 1.75889692 -8.9375 1.9375 C-9.78763672 2.02451172 -10.63777344 2.11152344 -11.51367188 2.20117188 C-12.72700195 2.33168945 -12.72700195 2.33168945 -13.96484375 2.46484375 C-14.7137085 2.543396 -15.46257324 2.62194824 -16.23413086 2.70288086 C-18.02140013 2.8280738 -18.02140013 2.8280738 -19 4 C-20.78323205 4.28752439 -22.5778887 4.50590214 -24.375 4.6875 C-25.84066406 4.84798828 -25.84066406 4.84798828 -27.3359375 5.01171875 C-30 5 -30 5 -33 3 C-22.30092112 -0.56635963 -11.14609828 -0.13537771 0 0 Z " fill="#248E53" transform="translate(258,165)"/>
<path d="M0 0 C5.94 0 11.88 0 18 0 C18 0.33 18 0.66 18 1 C23.94 1.33 29.88 1.66 36 2 C36 2.33 36 2.66 36 3 C31.68755812 3.05859908 27.37522026 3.09379686 23.0625 3.125 C21.24395508 3.15013672 21.24395508 3.15013672 19.38867188 3.17578125 C12.5823144 3.21267208 6.57150148 2.80060558 0 1 C0 0.67 0 0.34 0 0 Z " fill="#197A44" transform="translate(228,331)"/>
<path d="M0 0 C7.19940132 6.10384025 14.37591799 12.26932357 21 19 C11.08260115 17.3584995 11.08260115 17.3584995 8.58984375 14.23046875 C7.98474455 12.86048224 7.42225245 11.47093572 6.90234375 10.06640625 C5.86622164 7.69364177 4.62765824 6.38991202 2.75 4.625 C1.8425 3.75875 0.935 2.8925 0 2 C0 1.34 0 0.68 0 0 Z " fill="#1E814A" transform="translate(168,321)"/>
<path d="M0 0 C1.9375 0.3125 1.9375 0.3125 4 1 C4.33 1.99 4.66 2.98 5 4 C6.32848691 5.00642948 7.66150329 6.00692179 9 7 C9 7.66 9 8.32 9 9 C9.66 9.33 10.32 9.66 11 10 C11 10.66 11 11.32 11 12 C11.66 12 12.32 12 13 12 C13.33 13.65 13.66 15.3 14 17 C14.66 17 15.32 17 16 17 C16 18.98 16 20.96 16 23 C14.15928181 20.58405737 12.37686288 18.13299816 10.625 15.65234375 C10.19703125 15.04712891 9.7690625 14.44191406 9.328125 13.81835938 C8.44086681 12.5618452 7.55545589 11.30402464 6.671875 10.04492188 C4.22246877 6.55782637 4.22246877 6.55782637 1.3515625 3.42407227 C0 2 0 2 0 0 Z " fill="#1E7646" transform="translate(330,175)"/>
<path d="M0 0 C5.1924998 1.02167241 10.02115829 2.31687134 14.9375 4.26953125 C18.53579324 5.54392677 22.26030945 6.26418126 26 7 C26 7.33 26 7.66 26 8 C20.06 7.67 14.12 7.34 8 7 C8 6.01 8 5.02 8 4 C5.69 3.67 3.38 3.34 1 3 C0.67 2.01 0.34 1.02 0 0 Z " fill="#259357" transform="translate(207,350)"/>
<path d="M0 0 C0.33 0 0.66 0 1 0 C2.44231303 6.20662185 2.18423854 12.40972964 2.1875 18.75 C2.19974609 19.9875 2.21199219 21.225 2.22460938 22.5 C2.23551196 29.33228587 1.80609807 35.40381573 0 42 C-0.71996019 39.48497463 -1.01512639 38.08857796 -0.56640625 35.4609375 C0.24352415 30.51198347 0.10447733 25.62998949 0.0625 20.625 C0.05798828 19.60277344 0.05347656 18.58054688 0.04882812 17.52734375 C0.037103 15.01816806 0.02069176 12.5091151 0 10 C-0.33 10 -0.66 10 -1 10 C-0.67 6.7 -0.34 3.4 0 0 Z " fill="#126033" transform="translate(332,230)"/>
<path d="M0 0 C5.82900226 5.25287994 9.37334993 14.41891529 11 22 C10.6875 25.0625 10.6875 25.0625 10 27 C6.9627262 23.60935917 6.33606813 20.62230364 5.5625 16.1875 C4.47158683 10.61107684 3.10360044 6.70891101 0 2 C0 1.34 0 0.68 0 0 Z " fill="#1B6F3F" transform="translate(321,204)"/>
<path d="M0 0 C0.66 0.33 1.32 0.66 2 1 C-15.75885545 10.39948097 -15.75885545 10.39948097 -24 10 C-21.35261084 8.5393715 -20.10551666 8 -17 8 C-17 7.01 -17 6.02 -17 5 C-15.94039063 4.72285156 -14.88078125 4.44570313 -13.7890625 4.16015625 C-12.40101131 3.794386 -11.01299213 3.42849428 -9.625 3.0625 C-8.92632812 2.88009766 -8.22765625 2.69769531 -7.5078125 2.50976562 C-3.66044902 1.51487491 -3.66044902 1.51487491 0 0 Z " fill="#196F3F" transform="translate(401,444)"/>
<path d="M0 0 C0.33 0.66 0.66 1.32 1 2 C0.34 2 -0.32 2 -1 2 C-1.33644531 2.84304688 -1.33644531 2.84304688 -1.6796875 3.703125 C-3.38671923 6.67275417 -5.54806544 8.50344167 -8.125 10.75 C-9.49011719 11.94882812 -9.49011719 11.94882812 -10.8828125 13.171875 C-11.58148438 13.77515625 -12.28015625 14.3784375 -13 15 C-13.66 14.67 -14.32 14.34 -15 14 C-14.875 12.125 -14.875 12.125 -14 10 C-13.030625 9.690625 -12.06125 9.38125 -11.0625 9.0625 C-7.78408334 8.31669923 -7.78408334 8.31669923 -6.625 5.375 C-6.315625 4.199375 -6.315625 4.199375 -6 3 C-5.01 3 -4.02 3 -3 3 C-3 2.34 -3 1.68 -3 1 C-2.01 0.67 -1.02 0.34 0 0 Z " fill="#238F57" transform="translate(432,420)"/>
<path d="M0 0 C2.6051736 2.31905627 3.91653402 4.59814734 5.375 7.75 C7.53440473 12.22633442 9.99405368 16.0493277 13 20 C12.67 20.66 12.34 21.32 12 22 C10 20.6875 10 20.6875 8 19 C8 18.01 8 17.02 8 16 C6.68 15.67 5.36 15.34 4 15 C4.66 15 5.32 15 6 15 C6 14.01 6 13.02 6 12 C5.36578125 11.77570313 4.7315625 11.55140625 4.078125 11.3203125 C2 10 2 10 1.171875 7.6171875 C1.03265625 6.71226562 0.8934375 5.80734375 0.75 4.875 C0.60046875 3.96492188 0.4509375 3.05484375 0.296875 2.1171875 C0.19890625 1.41851562 0.1009375 0.71984375 0 0 Z " fill="#1E7D4A" transform="translate(150,293)"/>
<path d="M0 0 C8.5664977 2.56469379 16.92369464 5.10606706 25 9 C24.01 9.495 24.01 9.495 23 10 C22.29875 9.71125 21.5975 9.4225 20.875 9.125 C17.21736329 7.69375085 13.90380247 7.39699686 10 7 C10 6.34 10 5.68 10 5 C8.68 5 7.36 5 6 5 C6 4.34 6 3.68 6 3 C5.01 3.33 4.02 3.66 3 4 C2.01 3.67 1.02 3.34 0 3 C0 2.01 0 1.02 0 0 Z " fill="#1F7B46" transform="translate(376,40)"/>
<path d="M0 0 C0.66 0.33 1.32 0.66 2 1 C1.21625 1.721875 0.4325 2.44375 -0.375 3.1875 C-3.05493891 5.71469294 -3.05493891 5.71469294 -3.9375 8.375 C-5.48151637 12.18962867 -8.01859217 15.17790404 -11 18 C-11.99 18.33 -12.98 18.66 -14 19 C-12.56563891 14.73568324 -10.44379516 11.80984447 -7.5625 8.375 C-6.78003906 7.43398437 -5.99757812 6.49296875 -5.19140625 5.5234375 C-3.51771192 3.59615312 -1.84095853 1.76400528 0 0 Z " fill="#207B49" transform="translate(193,186)"/>
<path d="M0 0 C6.71700347 -0.31985731 11.75726932 0.5206176 18 3 C18 3.66 18 4.32 18 5 C19.32 5 20.64 5 22 5 C21.67 5.66 21.34 6.32 21 7 C17.87207969 6.21958076 14.74828003 5.42376989 11.625 4.625 C10.73554687 4.40328125 9.84609375 4.1815625 8.9296875 3.953125 C8.07890625 3.73398437 7.228125 3.51484375 6.3515625 3.2890625 C5.56604004 3.09006348 4.78051758 2.89106445 3.97119141 2.68603516 C2 2 2 2 0 0 Z " fill="#1D7F49" transform="translate(110,450)"/>
<path d="M0 0 C1.89286684 4.86571292 -0.61522697 8.5065026 -2.5859375 13.00390625 C-4.22153459 16.46938407 -5.99665192 19.73528462 -8 23 C-8.33 23 -8.66 23 -9 23 C-9.1875 20.6875 -9.1875 20.6875 -9 18 C-8 17 -7 16 -6 15 C-5.27129528 12.68529088 -4.60760482 10.3494053 -4 8 C-3.35800351 6.32367583 -2.70105843 4.65249487 -2 3 C-1.34 3 -0.68 3 0 3 C0 2.01 0 1.02 0 0 Z " fill="#1F7948" transform="translate(330,272)"/>
<path d="M0 0 C9.59132638 0.42439497 18.92782298 2.61854866 27 8 C27 8.33 27 8.66 27 9 C24.69 9 22.38 9 20 9 C20 8.34 20 7.68 20 7 C18.68 6.67 17.36 6.34 16 6 C16 5.34 16 4.68 16 4 C15.26394531 3.86722656 14.52789062 3.73445312 13.76953125 3.59765625 C12.79371094 3.42105469 11.81789063 3.24445313 10.8125 3.0625 C9.84957031 2.88847656 8.88664062 2.71445313 7.89453125 2.53515625 C5.25760028 2.0476265 2.6280095 1.53328895 0 1 C0 0.67 0 0.34 0 0 Z " fill="#1A733F" transform="translate(262,166)"/>
<path d="M0 0 C1.32 0.66 2.64 1.32 4 2 C3.34 3.32 2.68 4.64 2 6 C1.34 6 0.68 6 0 6 C0 6.99 0 7.98 0 9 C-0.66 9 -1.32 9 -2 9 C-2.33 10.65 -2.66 12.3 -3 14 C-3.99 14 -4.98 14 -6 14 C-6 13.01 -6 12.02 -6 11 C-5.34 11 -4.68 11 -4 11 C-3.896875 10.484375 -3.79375 9.96875 -3.6875 9.4375 C-2.75736134 6.13973565 -1.38604488 3.13366668 0 0 Z " fill="#2FB06A" transform="translate(349,293)"/>
<path d="M0 0 C3.7910119 1.44950455 7.3874638 3.15172566 11 5 C11 5.66 11 6.32 11 7 C11.78375 7.12375 12.5675 7.2475 13.375 7.375 C16 8 16 8 18 10 C16.35 10.33 14.7 10.66 13 11 C13 10.34 13 9.68 13 9 C12.01 9 11.02 9 10 9 C10 8.01 10 7.02 10 6 C8.35 6.33 6.7 6.66 5 7 C0 1.125 0 1.125 0 0 Z " fill="#20834A" transform="translate(189,340)"/>
<path d="M0 0 C-1.03763211 2.93378127 -1.71311965 3.85257537 -4.53125 5.30078125 C-5.5109375 5.63464844 -6.490625 5.96851563 -7.5 6.3125 C-8.96953125 6.83263672 -8.96953125 6.83263672 -10.46875 7.36328125 C-13 8 -13 8 -15 7 C-13.68 6.67 -12.36 6.34 -11 6 C-11 5.34 -11 4.68 -11 4 C-4.5 0 -4.5 0 0 0 Z " fill="#2A9959" transform="translate(315,339)"/>
<path d="M0 0 C5.41390868 0.46671627 9.20517932 1.24297811 14 4 C14 4.66 14 5.32 14 6 C15.65 6.33 17.3 6.66 19 7 C13.82250504 8.86533306 9.71986829 6.18837189 5 4 C1.875 2.3125 1.875 2.3125 0 1 C0 0.67 0 0.34 0 0 Z " fill="#1C7442" transform="translate(209,323)"/>
<path d="M0 0 C2.97 0.495 2.97 0.495 6 1 C6.2475 1.94875 6.495 2.8975 6.75 3.875 C8.19050927 7.47627319 8.68196667 7.49180303 12 9 C13.75 11.625 13.75 11.625 15 14 C13 13 11 12 9 11 C9 10.34 9 9.68 9 9 C7.68 8.34 6.36 7.68 5 7 C5 6.34 5 5.68 5 5 C4.34 5 3.68 5 3 5 C3 4.34 3 3.68 3 3 C2.34 3 1.68 3 1 3 C0.67 2.01 0.34 1.02 0 0 Z " fill="#17653A" transform="translate(185,303)"/>
<path d="M0 0 C-6.625 4 -6.625 4 -10 4 C-10.33 4.99 -10.66 5.98 -11 7 C-13.9375 8.25 -13.9375 8.25 -17 9 C-17.66 8.67 -18.32 8.34 -19 8 C-3.81646895 -1.27215632 -3.81646895 -1.27215632 0 0 Z " fill="#166134" transform="translate(108,47)"/>
<path d="M0 0 C2 2 2 2 3 5 C3.969375 5.45375 4.93875 5.9075 5.9375 6.375 C9 8 9 8 10.375 10.6875 C10.58125 11.450625 10.7875 12.21375 11 13 C5.1900814 10.54195751 0.8755168 6.59128267 -2 1 C-1.34 0.67 -0.68 0.34 0 0 Z " fill="#248F57" transform="translate(70,420)"/>
<path d="M0 0 C0.66 0 1.32 0 2 0 C3.6277833 6.14778871 4.20190089 11.64012196 4 18 C0.15839684 12.23759526 -0.23538321 6.70842135 0 0 Z " fill="#2C975B" transform="translate(354,213)"/>
<path d="M0 0 C0.99 0.33 1.98 0.66 3 1 C4.66362417 1.34820041 6.32995171 1.68404492 8 2 C3.34714182 5.10190545 -1.41532676 6.33846504 -7 6 C-7 5.34 -7 4.68 -7 4 C-6.030625 3.525625 -5.06125 3.05125 -4.0625 2.5625 C-1.19522563 1.29806053 -1.19522563 1.29806053 0 0 Z " fill="#289459" transform="translate(221,140)"/>
<path d="M0 0 C1.27133789 0.20786133 1.27133789 0.20786133 2.56835938 0.41992188 C3.44943359 0.57138672 4.33050781 0.72285156 5.23828125 0.87890625 C6.57729492 1.10030273 6.57729492 1.10030273 7.94335938 1.32617188 C10.14699262 1.69148006 12.34928725 2.06345513 14.55078125 2.44140625 C14.55078125 2.77140625 14.55078125 3.10140625 14.55078125 3.44140625 C3.16578125 2.94640625 3.16578125 2.94640625 -8.44921875 2.44140625 C-6.58448337 -1.2880645 -3.5790422 -0.60051044 0 0 Z " fill="#41EF95" transform="translate(252.44921875,136.55859375)"/>
<path d="M0 0 C4.55737263 0.43820891 7.57653445 0.85041169 11 4 C10.67 4.99 10.34 5.98 10 7 C9.0925 6.525625 8.185 6.05125 7.25 5.5625 C4.73572051 4.35371179 2.70431791 3.52006114 0 3 C0 2.01 0 1.02 0 0 Z " fill="#2CB168" transform="translate(400,51)"/>
<path d="M0 0 C1.65 0 3.3 0 5 0 C1.67149253 3.59478807 -1.98971331 6.22364768 -6 9 C-5.67 7.02 -5.34 5.04 -5 3 C-3.35 2.67 -1.7 2.34 0 2 C0 1.34 0 0.68 0 0 Z " fill="#29A464" transform="translate(182,161)"/>
<path d="M0 0 C0.556875 0.309375 1.11375 0.61875 1.6875 0.9375 C3.96609762 2.14783132 3.96609762 2.14783132 6.5625 2.1875 C9 3 9 3 10.8125 6.5625 C11.204375 7.696875 11.59625 8.83125 12 10 C6.37413137 8.23186986 3.22159437 4.83239156 0 0 Z " fill="#31B16C" transform="translate(197,313)"/>
<path d="M0 0 C0.66 1.32 1.32 2.64 2 4 C0.02 5.98 -1.96 7.96 -4 10 C-4.66 9.67 -5.32 9.34 -6 9 C-3.375 2.25 -3.375 2.25 0 0 Z " fill="#29AC68" transform="translate(310,304)"/>
<path d="M0 0 C0.66 0 1.32 0 2 0 C3.32 3.63 4.64 7.26 6 11 C5.34 11.66 4.68 12.32 4 13 C3.13633178 11.21289414 2.28431406 9.4201535 1.4375 7.625 C0.96183594 6.62726563 0.48617188 5.62953125 -0.00390625 4.6015625 C-0.49697266 3.31378906 -0.49697266 3.31378906 -1 2 C-0.67 1.34 -0.34 0.68 0 0 Z " fill="#299259" transform="translate(347,197)"/>
<path d="M0 0 C0.99 0.33 1.98 0.66 3 1 C0.93970355 4.09044468 0.17393713 4.51221697 -3 6 C-3.66 6.66 -4.32 7.32 -5 8 C-6.32 7.34 -7.64 6.68 -9 6 C-7.57140593 4.96674014 -6.13177617 3.94872366 -4.6875 2.9375 C-3.88699219 2.36902344 -3.08648437 1.80054688 -2.26171875 1.21484375 C-1.51535156 0.81394531 -0.76898438 0.41304687 0 0 Z " fill="#269758" transform="translate(212,173)"/>
<path d="M0 0 C0.66 0.33 1.32 0.66 2 1 C1.3503125 2.0209375 1.3503125 2.0209375 0.6875 3.0625 C-1.10981506 6.04523886 -1.10981506 6.04523886 -2.5 9.625 C-3.78539301 12.51713427 -4.59632522 14.05416804 -7 16 C-7.33 15.34 -7.66 14.68 -8 14 C-6.75717988 11.54961707 -5.47117661 9.226675 -4.0625 6.875 C-3.48338867 5.88693359 -3.48338867 5.88693359 -2.89257812 4.87890625 C-1.93553422 3.248387 -0.96867185 1.62363816 0 0 Z " fill="#176637" transform="translate(59,83)"/>
<path d="M0 0 C0.66 0.33 1.32 0.66 2 1 C-0.32121701 5.51347752 -2.90712143 8.10087768 -7 11 C-7.99 10.67 -8.98 10.34 -10 10 C-6.7 6.7 -3.4 3.4 0 0 Z " fill="#2CA460" transform="translate(78,63)"/>
<path d="M0 0 C0.99 0 1.98 0 3 0 C3 0.99 3 1.98 3 3 C3.66 3 4.32 3 5 3 C5 4.32 5 5.64 5 7 C5.66 7 6.32 7 7 7 C7.66 9.31 8.32 11.62 9 14 C5.15237434 10.5798883 2.39365978 6.53225744 0 2 C0 1.34 0 0.68 0 0 Z " fill="#21804D" transform="translate(176,289)"/>
<path d="M0 0 C0.66 0 1.32 0 2 0 C1.53411505 5.70709064 0.06242216 9.15939723 -3 14 C-3.33 14 -3.66 14 -4 14 C-4 12.35 -4 10.7 -4 9 C-3.34 9 -2.68 9 -2 9 C-1.7834375 7.0509375 -1.7834375 7.0509375 -1.5625 5.0625 C-1.125 1.125 -1.125 1.125 0 0 Z " fill="#2AA766" transform="translate(156,188)"/>
<path d="M0 0 C0.33 0.66 0.66 1.32 1 2 C1.99 1.67 2.98 1.34 4 1 C2.22054913 5.04420651 -0.39529673 8.46078487 -3 12 C-3.66 11.67 -4.32 11.34 -5 11 C-4.67 9.68 -4.34 8.36 -4 7 C-3.34 7 -2.68 7 -2 7 C-2 6.34 -2 5.68 -2 5 C-1.34 5 -0.68 5 0 5 C0 3.35 0 1.7 0 0 Z " fill="#248B53" transform="translate(317,294)"/>
<path d="M0 0 C2.7972908 2.06756277 3.02692273 3.14440371 3.6875 6.6875 C3.790625 7.780625 3.89375 8.87375 4 10 C2.68 9.34 1.36 8.68 0 8 C-0.33 8.99 -0.66 9.98 -1 11 C-2.35179673 7.35014884 -1.55313497 5.47171347 0 2 C0 1.34 0 0.68 0 0 Z " fill="#3BEC90" transform="translate(148,292)"/>
<path d="M0 0 C1.98 0 3.96 0 6 0 C6.33 0.99 6.66 1.98 7 3 C8.65 3 10.3 3 12 3 C12.33 3.99 12.66 4.98 13 6 C8.14036821 5.39254603 4.2594482 3.27241033 0 1 C0 0.67 0 0.34 0 0 Z " fill="#1D7646" transform="translate(97,444)"/>
<path d="M0 0 C5.26170694 1.41167747 8.72171358 3.74850232 13 7 C12.01 7.495 12.01 7.495 11 8 C6.36647119 6.36968431 3.2066597 4.84799164 0 1 C0 0.67 0 0.34 0 0 Z " fill="#208048" transform="translate(289,175)"/>
<path d="M0 0 C0.66 0 1.32 0 2 0 C2 0.66 2 1.32 2 2 C2.66 2 3.32 2 4 2 C4.33 3.65 4.66 5.3 5 7 C5.66 7 6.32 7 7 7 C7 8.98 7 10.96 7 13 C4.42783245 9.91339894 0 4.22150213 0 0 Z " fill="#2D9F61" transform="translate(339,185)"/>
<path d="M0 0 C1.65 0 3.3 0 5 0 C5.33 1.32 5.66 2.64 6 4 C4.68 4.99 3.36 5.98 2 7 C1.67 6.01 1.34 5.02 1 4 C0.34 3.67 -0.32 3.34 -1 3 C-0.67 2.01 -0.34 1.02 0 0 Z " fill="#38F194" transform="translate(186,152)"/>
<path d="M0 0 C2 3 2 3 1.75 5.5625 C1 8 1 8 -1 10 C-1.69748583 11.31747324 -2.36959957 12.64914193 -3 14 C-2.58846263 9.02906176 -2.20399168 4.55491614 0 0 Z " fill="#176838" transform="translate(170,222)"/>
<path d="M0 0 C-2.05233685 2.2477975 -3.00667261 3.0022242 -6 4 C-6.99 3.67 -7.98 3.34 -9 3 C-8.67 2.01 -8.34 1.02 -8 0 C-4.71023192 -1.09658936 -3.28696233 -0.79953138 0 0 Z " fill="#3EE98E" transform="translate(230,170)"/>
<path d="M0 0 C0 0.66 0 1.32 0 2 C-6.435 2.495 -6.435 2.495 -13 3 C-9.19777044 -0.80222956 -5.07002404 -1.49118354 0 0 Z " fill="#1F7A49" transform="translate(121,43)"/>
<path d="M0 0 C0 3.60573896 -0.81707462 4.41336566 -3 7.1875 C-3.556875 7.90292969 -4.11375 8.61835938 -4.6875 9.35546875 C-5.120625 9.89816406 -5.55375 10.44085938 -6 11 C-6.66 10.67 -7.32 10.34 -8 10 C-7.67 9.01 -7.34 8.02 -7 7 C-6.34 7 -5.68 7 -5 7 C-5 5.68 -5 4.36 -5 3 C-2.5 1.25 -2.5 1.25 0 0 Z " fill="#1E6E40" transform="translate(441,409)"/>
<path d="M0 0 C0.66 0.33 1.32 0.66 2 1 C1.67 1.99 1.34 2.98 1 4 C0.34 4 -0.32 4 -1 4 C-1.33 4.99 -1.66 5.98 -2 7 C-4.0625 8.1875 -4.0625 8.1875 -6 9 C-5.25 6.0625 -5.25 6.0625 -4 3 C-1.875 2.125 -1.875 2.125 0 2 C0 1.34 0 0.68 0 0 Z " fill="#29E381" transform="translate(166,319)"/>
<path d="M0 0 C2.31 0.33 4.62 0.66 7 1 C3.80009492 3.74277578 0.99500618 5.6302836 -3 7 C-3 6.34 -3 5.68 -3 5 C-2.01 5 -1.02 5 0 5 C0 3.35 0 1.7 0 0 Z " fill="#3DE794" transform="translate(409,434)"/>
<path d="M0 0 C1.18771723 3.42943519 0.80226223 5.37784675 -0.4375 8.75 C-0.86869141 9.94882813 -0.86869141 9.94882813 -1.30859375 11.171875 C-1.65083984 12.07679688 -1.65083984 12.07679688 -2 13 C-2.33 13 -2.66 13 -3 13 C-3 10.03 -3 7.06 -3 4 C-2.01 3.67 -1.02 3.34 0 3 C0 2.01 0 1.02 0 0 Z " fill="#1C7141" transform="translate(147,211)"/>
<path d="M0 0 C1.32 0 2.64 0 4 0 C5.484375 1.75 5.484375 1.75 6.75 4 C7.17796875 4.7425 7.6059375 5.485 8.046875 6.25 C8.36140625 6.8275 8.6759375 7.405 9 8 C5.23508353 6.27039094 2.81760833 4.05240902 0 1 C0 0.67 0 0.34 0 0 Z " fill="#258B54" transform="translate(310,157)"/>
<path d="M0 0 C2.27795022 2.27795022 3.05219877 3.93787293 4 7 C3.625 9.3125 3.625 9.3125 3 11 C1 10 1 10 0 7 C-0.03954234 4.66700175 -0.04401732 2.33291811 0 0 Z " fill="#1F7746" transform="translate(146,282)"/>
<path d="M0 0 C1 2 1 2 0.546875 3.91015625 C0.28390625 4.62042969 0.0209375 5.33070313 -0.25 6.0625 C-0.62898437 7.13177734 -0.62898437 7.13177734 -1.015625 8.22265625 C-2 10 -2 10 -5 11 C-4.32902328 6.80639551 -2.1441606 3.59665648 0 0 Z " fill="#1C7442" transform="translate(178,205)"/>
<path d="M0 0 C2.64 0 5.28 0 8 0 C6.32169152 3.35661695 3.29210653 4.32506861 0 6 C-0.66 5.67 -1.32 5.34 -2 5 C-2 4.34 -2 3.68 -2 3 C-1.01 3 -0.02 3 1 3 C0.67 2.01 0.34 1.02 0 0 Z " fill="#228B4F" transform="translate(191,153)"/>
<path d="M0 0 C0.66 0 1.32 0 2 0 C2.69937202 1.4317616 3.38412718 2.87067032 4.0625 4.3125 C4.63677734 5.51326172 4.63677734 5.51326172 5.22265625 6.73828125 C6 9 6 9 5 12 C4.15556432 10.75747321 3.3248542 9.5056114 2.5 8.25 C1.80390625 7.20585938 1.80390625 7.20585938 1.09375 6.140625 C0 4 0 4 0 0 Z " fill="#42E191" transform="translate(447,98)"/>
<path d="M0 0 C1.48117801 0.28127421 2.95993249 0.57533732 4.4375 0.875 C5.67306641 1.11863281 5.67306641 1.11863281 6.93359375 1.3671875 C7.61550781 1.57601563 8.29742187 1.78484375 9 2 C9.33 2.66 9.66 3.32 10 4 C7.03 3.67 4.06 3.34 1 3 C0.67 2.01 0.34 1.02 0 0 Z " fill="#227443" transform="translate(207,350)"/>
<path d="M0 0 C0.33 0.66 0.66 1.32 1 2 C1.99 2 2.98 2 4 2 C4 4.64 4 7.28 4 10 C3.34 9.67 2.68 9.34 2 9 C1.3671875 6.93359375 1.3671875 6.93359375 0.875 4.4375 C0.70742187 3.61121094 0.53984375 2.78492188 0.3671875 1.93359375 C0.24601563 1.29550781 0.12484375 0.65742188 0 0 Z " fill="#228149" transform="translate(169,272)"/>
<path d="M0 0 C1.9375 0.1875 1.9375 0.1875 4 1 C5.25 3.0625 5.25 3.0625 6 5 C4.68 5 3.36 5 2 5 C0.25 3 0.25 3 -1 1 C-0.67 0.67 -0.34 0.34 0 0 Z " fill="#3FED96" transform="translate(322,164)"/>
<path d="M0 0 C0.66 0.33 1.32 0.66 2 1 C0 4 0 4 -3 5 C-3.33 5.66 -3.66 6.32 -4 7 C-4.99 7 -5.98 7 -7 7 C-7 6.34 -7 5.68 -7 5 C-5.46875 3.7109375 -5.46875 3.7109375 -3.5 2.375 C-2.8503125 1.92898437 -2.200625 1.48296875 -1.53125 1.0234375 C-1.0259375 0.68570313 -0.520625 0.34796875 0 0 Z " fill="#1B683A" transform="translate(87,56)"/>
<path d="M0 0 C5.445 1.485 5.445 1.485 11 3 C9.02 3.99 9.02 3.99 7 5 C6.67 4.34 6.34 3.68 6 3 C5.01 3.33 4.02 3.66 3 4 C2.01 3.67 1.02 3.34 0 3 C0 2.01 0 1.02 0 0 Z " fill="#196A3D" transform="translate(376,40)"/>
<path d="M0 0 C3.3 0.66 6.6 1.32 10 2 C10 2.33 10 2.66 10 3 C6.37 3 2.74 3 -1 3 C-0.67 2.01 -0.34 1.02 0 0 Z " fill="#1B7642" transform="translate(365,38)"/>
<path d="M0 0 C1.98 0.99 1.98 0.99 4 2 C4.33 1.34 4.66 0.68 5 0 C6.33332095 2.6666419 5.67102033 4.16680303 5 7 C3.29115995 5.37660195 1.62553283 3.70680947 0 2 C0 1.34 0 0.68 0 0 Z " fill="#228D52" transform="translate(56,405)"/>
<path d="M0 0 C0.33 1.32 0.66 2.64 1 4 C-0.65 4 -2.3 4 -4 4 C-4.33 3.01 -4.66 2.02 -5 1 C-3.35 0.67 -1.7 0.34 0 0 Z " fill="#3CEA92" transform="translate(101,440)"/>
<path d="M0 0 C0.99 0.33 1.98 0.66 3 1 C1.68 2.65 0.36 4.3 -1 6 C-1.66 5.67 -2.32 5.34 -3 5 C-2.625 3.0625 -2.625 3.0625 -2 1 C-1.34 0.67 -0.68 0.34 0 0 Z " fill="#2DB16D" transform="translate(420,429)"/>
<path d="M0 0 C3.08089673 2.77280706 4.68775452 5.06326356 6 9 C3.5625 7.875 3.5625 7.875 1 6 C0.1875 2.8125 0.1875 2.8125 0 0 Z " fill="#145931" transform="translate(157,306)"/>
<path d="M0 0 C0.33 0 0.66 0 1 0 C1 1.98 1 3.96 1 6 C-0.32 6.33 -1.64 6.66 -3 7 C-3 6.01 -3 5.02 -3 4 C-2.34 4 -1.68 4 -1 4 C-0.67 2.68 -0.34 1.36 0 0 Z " fill="#2A9555" transform="translate(346,300)"/>
<path d="M0 0 C0.33 0.99 0.66 1.98 1 3 C-1.97 2.67 -4.94 2.34 -8 2 C-8 1.67 -8 1.34 -8 1 C-5.23735711 0.40267181 -2.83967231 0 0 0 Z " fill="#3CE08E" transform="translate(233,328)"/>
<path d="M0 0 C1.98 0 3.96 0 6 0 C3.60490662 2.89932357 1.68754757 3.50168276 -2 4 C-1.34 3.67 -0.68 3.34 0 3 C0 2.01 0 1.02 0 0 Z " fill="#1D8248" transform="translate(285,323)"/>
<path d="M0 0 C2.97 0.495 2.97 0.495 6 1 C6 2.32 6 3.64 6 5 C5.01 5 4.02 5 3 5 C3 4.34 3 3.68 3 3 C2.34 3 1.68 3 1 3 C0.67 2.01 0.34 1.02 0 0 Z " fill="#279D5D" transform="translate(185,303)"/>
<path d="M0 0 C1.10844919 3.32534757 0.84454356 5.62182575 0 9 C-0.99 9.33 -1.98 9.66 -3 10 C-2.21302675 6.58978257 -1.12880057 3.31114834 0 0 Z " fill="#186838" transform="translate(353,283)"/>
<path d="M0 0 C1.43088528 2.86177057 0.59991697 4.93375773 0 8 C-0.99 8.33 -1.98 8.66 -3 9 C-2.5020163 5.26512223 -2.12508244 3.18762365 0 0 Z " fill="#41EA8F" transform="translate(180,204)"/>
<path d="M0 0 C1.32 0 2.64 0 4 0 C3.43628586 3.26954202 2.50037734 4.82575883 0 7 C0 4.69 0 2.38 0 0 Z " fill="#20844F" transform="translate(157,186)"/>
<path d="M0 0 C0.99 0.33 1.98 0.66 3 1 C3 1.66 3 2.32 3 3 C3.99 3 4.98 3 6 3 C6 3.66 6 4.32 6 5 C3.64828869 4.40138258 1.3140622 3.73075648 -1 3 C-1.33 2.34 -1.66 1.68 -2 1 C-1.34 0.67 -0.68 0.34 0 0 Z " fill="#1E6F42" transform="translate(293,147)"/>
<path d="M0 0 C2.56616632 3.84924948 2.55097676 6.4349304 3 11 C0.39665076 8.28817788 0.00543309 7.10866187 -0.1875 3.25 C-0.125625 2.1775 -0.06375 1.105 0 0 Z " fill="#135E33" transform="translate(455,112)"/>
</svg>
